<?xml version="1.0" encoding="UTF-8"?>
<!DOCTYPE svg PUBLIC "-//W3C//DTD SVG 1.1//EN" "http://www.w3.org/Graphics/SVG/1.1/DTD/svg11.dtd">
<svg xmlns="http://www.w3.org/2000/svg" version="1.1" width="837px" height="312px" style="shape-rendering:geometricPrecision; text-rendering:geometricPrecision; image-rendering:optimizeQuality; fill-rule:evenodd; clip-rule:evenodd" xmlns:xlink="http://www.w3.org/1999/xlink">
<g><path style="opacity:0.418" fill="#fefffe" d="M 62.5,15.5 C 79.9476,15.6944 89.6142,24.3611 91.5,41.5C 90.3704,57.6316 81.7037,66.6316 65.5,68.5C 49.5519,66.7192 40.8852,57.8859 39.5,42C 40.6421,27.3659 48.3088,18.5325 62.5,15.5 Z"/></g>
<g><path style="opacity:0.411" fill="#fefffe" d="M 131.5,15.5 C 148.948,15.6944 158.614,24.3611 160.5,41.5C 159.37,57.6316 150.704,66.6316 134.5,68.5C 118.552,66.7192 109.885,57.8859 108.5,42C 109.642,27.3659 117.309,18.5325 131.5,15.5 Z M 127.5,19.5 C 150.633,18.1293 160.133,28.7959 156,51.5C 148.86,64.1405 138.36,67.9739 124.5,63C 113.045,56.242 109.212,46.4087 113,33.5C 115.774,26.5569 120.607,21.8903 127.5,19.5 Z"/></g>
<g><path style="opacity:0.405" fill="#fefffe" d="M 200.5,15.5 C 218.454,15.2859 228.454,24.1193 230.5,42C 227.181,61.9825 215.514,70.3159 195.5,67C 180.532,60.5631 175.032,49.3965 179,33.5C 182.74,23.2493 189.906,17.2493 200.5,15.5 Z M 196.5,19.5 C 214.289,16.7951 224.623,24.2951 227.5,42C 226.782,52.7144 221.449,60.0477 211.5,64C 193.434,67.0958 183.101,59.5958 180.5,41.5C 181.719,30.9774 187.052,23.644 196.5,19.5 Z"/></g>
<g><path style="opacity:0.405" fill="#fefffe" d="M 269.5,15.5 C 287.454,15.2859 297.454,24.1193 299.5,42C 296.181,61.9825 284.514,70.3159 264.5,67C 249.532,60.5631 244.032,49.3965 248,33.5C 251.74,23.2493 258.906,17.2493 269.5,15.5 Z M 265.5,19.5 C 283.289,16.7951 293.623,24.2951 296.5,42C 295.782,52.7144 290.449,60.0477 280.5,64C 262.434,67.0958 252.101,59.5958 249.5,41.5C 250.719,30.9774 256.052,23.644 265.5,19.5 Z"/></g>
<g><path style="opacity:0.419" fill="#fefffe" d="M 59.5,87.5 C 84.2637,87.0988 94.4304,99.0988 90,123.5C 82.8855,137.47 71.7189,142.303 56.5,138C 40.1464,129.452 35.6464,116.619 43,99.5C 47.2858,93.6977 52.7858,89.6977 59.5,87.5 Z"/></g>
<g><path style="opacity:0.42" fill="#fefffe" d="M 128.5,87.5 C 150.803,86.4697 161.47,97.1364 160.5,119.5C 152.826,119.334 145.159,119.5 137.5,120C 133.084,122.412 129.251,125.578 126,129.5C 125.818,132.226 125.318,134.893 124.5,137.5C 109.665,129.504 105.165,117.504 111,101.5C 115.245,94.7456 121.078,90.0789 128.5,87.5 Z"/></g>
<g><path style="opacity:0.42" fill="#fefefe" d="M 217.5,133.5 C 218.486,129.03 218.819,124.363 218.5,119.5C 204.753,120.138 191.253,119.471 178,117.5C 177.413,99.4236 186.079,89.4236 204,87.5C 223.057,89.7256 231.557,100.392 229.5,119.5C 228.167,119.5 226.833,119.5 225.5,119.5C 226.674,128.857 222.674,135.024 213.5,138C 204.717,140.658 196.384,139.658 188.5,135C 198.342,134.83 208.009,134.33 217.5,133.5 Z"/></g>
<g><path style="opacity:0.413" fill="#fefffe" d="M 266.5,87.5 C 285.747,85.7502 296.747,94.4168 299.5,113.5C 296.794,132.704 285.794,141.204 266.5,139C 252.604,134.038 246.104,124.205 247,109.5C 249.507,98.4999 256.007,91.1666 266.5,87.5 Z M 267.5,90.5 C 282.882,88.9307 292.382,95.5974 296,110.5C 296.491,123.354 290.658,131.854 278.5,136C 257.037,136.872 247.87,126.705 251,105.5C 254.206,97.7856 259.706,92.7856 267.5,90.5 Z"/></g>
<g><path style="opacity:1" fill="#fefffe" d="M 217.5,133.5 C 195.497,133.333 173.497,133.5 151.5,134C 148.667,135.5 146.5,137.667 145,140.5C 144.177,149.01 144.343,157.344 145.5,165.5C 168.994,166.498 192.661,166.831 216.5,166.5C 216.5,170.5 216.5,174.5 216.5,178.5C 186.5,178.5 156.5,178.5 126.5,178.5C 126.333,162.497 126.5,146.497 127,130.5C 130.251,126.578 134.084,123.412 138.5,121C 164.831,120.5 191.165,120.333 217.5,120.5C 217.5,124.833 217.5,129.167 217.5,133.5 Z"/></g>
<g><path style="opacity:1" fill="#fefffe" d="M 226.5,120.5 C 232.833,120.5 239.167,120.5 245.5,120.5C 245.5,128.5 245.5,136.5 245.5,144.5C 263.5,144.5 281.5,144.5 299.5,144.5C 299.5,136.5 299.5,128.5 299.5,120.5C 305.833,120.5 312.167,120.5 318.5,120.5C 318.5,140.167 318.5,159.833 318.5,179.5C 312.167,179.5 305.833,179.5 299.5,179.5C 299.5,171.5 299.5,163.5 299.5,155.5C 281.5,155.5 263.5,155.5 245.5,155.5C 245.5,163.5 245.5,171.5 245.5,179.5C 239.167,179.5 232.833,179.5 226.5,179.5C 226.5,159.833 226.5,140.167 226.5,120.5 Z"/></g>
<g><path style="opacity:0.999" fill="#fefffe" d="M 340.5,120.5 C 366.833,120.5 393.167,120.5 419.5,120.5C 419.5,140.167 419.5,159.833 419.5,179.5C 413.5,179.5 407.5,179.5 401.5,179.5C 401.5,174.5 401.5,169.5 401.5,164.5C 383.167,164.5 364.833,164.5 346.5,164.5C 346.5,169.5 346.5,174.5 346.5,179.5C 340.5,179.5 334.5,179.5 328.5,179.5C 328.333,163.163 328.5,146.83 329,130.5C 332.357,126.579 336.19,123.245 340.5,120.5 Z M 353.5,133.5 C 369.5,133.5 385.5,133.5 401.5,133.5C 401.5,140.167 401.5,146.833 401.5,153.5C 383.167,153.5 364.833,153.5 346.5,153.5C 346.334,148.489 346.501,143.489 347,138.5C 348.603,135.965 350.769,134.298 353.5,133.5 Z"/></g>
<g><path style="opacity:0.418" fill="#fefffe" d="M 62.5,158.5 C 79.9476,158.694 89.6142,167.361 91.5,184.5C 90.3704,200.632 81.7037,209.632 65.5,211.5C 49.5519,209.719 40.8852,200.886 39.5,185C 40.6421,170.366 48.3088,161.533 62.5,158.5 Z"/></g>
<g><path style="opacity:0.42" fill="#fefffe" d="M 200.5,158.5 C 210.829,157.654 218.995,161.32 225,169.5C 225.499,173.152 225.665,176.818 225.5,180.5C 228.826,180.162 230.493,181.662 230.5,185C 227.181,204.983 215.514,213.316 195.5,210C 182.166,204.657 176.333,194.823 178,180.5C 191.087,179.511 204.254,179.177 217.5,179.5C 217.5,174.833 217.5,170.167 217.5,165.5C 207.161,165.666 196.828,165.5 186.5,165C 190.677,161.562 195.344,159.396 200.5,158.5 Z"/></g>
<g><path style="opacity:0.403" fill="#fefffe" d="M 269.5,158.5 C 287.454,158.286 297.454,167.119 299.5,185C 298.7,196.445 293.2,204.612 283,209.5C 282.219,208.056 282.386,206.723 283.5,205.5C 296.55,196.755 299.384,185.421 292,171.5C 285.118,162.952 276.284,160.119 265.5,163C 252.294,168.58 247.461,178.413 251,192.5C 252.836,197.508 256.003,201.508 260.5,204.5C 261.614,205.723 261.781,207.056 261,208.5C 246.966,199.381 243.299,187.047 250,171.5C 254.83,164.477 261.33,160.143 269.5,158.5 Z"/></g>
<g><path style="opacity:0.42" fill="#fefffe" d="M 123.5,160.5 C 125.456,166.412 126.123,172.745 125.5,179.5C 137.167,179.5 148.833,179.5 160.5,179.5C 161.772,198.229 153.105,208.896 134.5,211.5C 115.765,208.936 107.265,198.27 109,179.5C 111.041,170.968 115.875,164.635 123.5,160.5 Z"/></g>
<g><path style="opacity:1" fill="#fefffe" d="M 145.5,165.5 C 146.234,160.877 148.234,160.71 151.5,165C 149.527,165.495 147.527,165.662 145.5,165.5 Z"/></g>
<g><path style="opacity:0.999" fill="#fefffe" d="M 283.5,234.5 C 283.5,235.167 283.833,235.5 284.5,235.5C 284.842,236.338 285.508,236.672 286.5,236.5C 303.325,237.497 320.325,237.83 337.5,237.5C 337.5,241.833 337.5,246.167 337.5,250.5C 317.831,250.667 298.164,250.5 278.5,250C 271.521,248.092 266.355,243.926 263,237.5C 262.5,221.503 262.333,205.503 262.5,189.5C 268.833,189.5 275.167,189.5 281.5,189.5C 281.333,203.837 281.5,218.171 282,232.5C 282.278,233.416 282.778,234.082 283.5,234.5 Z"/></g>
<g><path style="opacity:0.998" fill="#fefffe" d="M 380.5,189.5 C 401.167,189.5 421.833,189.5 442.5,189.5C 442.5,193.5 442.5,197.5 442.5,201.5C 424.164,201.333 405.83,201.5 387.5,202C 381.166,203.843 377.499,208.009 376.5,214.5C 396.167,214.5 415.833,214.5 435.5,214.5C 435.5,218.167 435.5,221.833 435.5,225.5C 418.83,225.333 402.163,225.5 385.5,226C 381.692,228.767 378.692,232.267 376.5,236.5C 399.157,237.5 421.824,237.833 444.5,237.5C 444.5,241.833 444.5,246.167 444.5,250.5C 411.833,250.5 379.167,250.5 346.5,250.5C 348.938,239.294 354.272,229.628 362.5,221.5C 357.167,220.833 351.833,220.167 346.5,219.5C 353.149,204.184 364.482,194.184 380.5,189.5 Z"/></g>
<g><path style="opacity:0.999" fill="#fefffe" d="M 468.5,189.5 C 495.167,189.5 521.833,189.5 548.5,189.5C 548.5,209.833 548.5,230.167 548.5,250.5C 542.167,250.5 535.833,250.5 529.5,250.5C 529.5,245.167 529.5,239.833 529.5,234.5C 510.5,234.5 491.5,234.5 472.5,234.5C 472.5,239.833 472.5,245.167 472.5,250.5C 466.5,250.5 460.5,250.5 454.5,250.5C 454.333,234.163 454.5,217.83 455,201.5C 458.428,196.235 462.928,192.235 468.5,189.5 Z M 480.5,203.5 C 496.833,203.5 513.167,203.5 529.5,203.5C 529.5,210.167 529.5,216.833 529.5,223.5C 510.5,223.5 491.5,223.5 472.5,223.5C 472.334,219.154 472.501,214.821 473,210.5C 474.211,206.666 476.711,204.333 480.5,203.5 Z"/></g>
<g><path style="opacity:0.999" fill="#fefffe" d="M 557.5,189.5 C 579.886,189.043 602.22,189.543 624.5,191C 639.619,195.709 649.619,205.542 654.5,220.5C 649.125,220.172 643.792,220.505 638.5,221.5C 645.077,228.579 650.243,236.579 654,245.5C 654.494,247.134 654.66,248.801 654.5,250.5C 647.159,250.666 639.826,250.5 632.5,250C 630.205,245.241 628.038,240.408 626,235.5C 622.796,232.631 619.963,229.465 617.5,226C 603.837,225.5 590.171,225.333 576.5,225.5C 576.5,233.833 576.5,242.167 576.5,250.5C 570.167,250.5 563.833,250.5 557.5,250.5C 557.5,230.167 557.5,209.833 557.5,189.5 Z M 576.5,201.5 C 588.838,201.333 601.171,201.5 613.5,202C 619.275,203.941 623.275,207.774 625.5,213.5C 609.18,214.499 592.847,214.833 576.5,214.5C 576.5,210.167 576.5,205.833 576.5,201.5 Z"/></g>
<g><path style="opacity:0.998" fill="#fefffe" d="M 665.5,189.5 C 688.437,188.756 709.77,194.256 729.5,206C 733.982,209.647 738.315,213.481 742.5,217.5C 743.498,208.19 743.832,198.857 743.5,189.5C 749.833,189.5 756.167,189.5 762.5,189.5C 762.5,209.5 762.5,229.5 762.5,249.5C 755.8,249.83 749.134,249.497 742.5,248.5C 730.646,231.391 714.646,219.891 694.5,214C 691.183,213.502 687.85,213.335 684.5,213.5C 684.5,225.833 684.5,238.167 684.5,250.5C 678.167,250.5 671.833,250.5 665.5,250.5C 665.5,230.167 665.5,209.833 665.5,189.5 Z"/></g>
<g><path style="opacity:0.419" fill="#fefffe" d="M 59.5,230.5 C 84.2637,230.099 94.4304,242.099 90,266.5C 82.8855,280.47 71.7189,285.303 56.5,281C 40.1464,272.452 35.6464,259.619 43,242.5C 47.2858,236.698 52.7858,232.698 59.5,230.5 Z"/></g>
<g><path style="opacity:0.419" fill="#fefffe" d="M 128.5,230.5 C 153.264,230.099 163.43,242.099 159,266.5C 151.886,280.47 140.719,285.303 125.5,281C 109.146,272.452 104.646,259.619 112,242.5C 116.286,236.698 121.786,232.698 128.5,230.5 Z"/></g>
<g><path style="opacity:0.419" fill="#fefffe" d="M 197.5,230.5 C 216.747,228.75 227.747,237.417 230.5,256.5C 227.794,275.704 216.794,284.204 197.5,282C 183.604,277.038 177.104,267.205 178,252.5C 180.507,241.5 187.007,234.167 197.5,230.5 Z"/></g>
<g><path style="opacity:0.412" fill="#fefffe" d="M 260.5,232.5 C 261.598,233.601 261.765,234.934 261,236.5C 249.077,245.781 246.743,257.114 254,270.5C 265.139,281.452 276.973,282.286 289.5,273C 294.843,267.105 296.843,260.271 295.5,252.5C 296,252.167 296.5,251.833 297,251.5C 298.861,252.609 299.695,254.275 299.5,256.5C 296.794,275.704 285.794,284.204 266.5,282C 250.542,276.251 244.375,265.084 248,248.5C 250.507,241.832 254.673,236.498 260.5,232.5 Z"/></g>
<g><path style="opacity:0.42" fill="#fefffe" d="M 286.5,236.5 C 286.158,235.662 285.492,235.328 284.5,235.5C 283.833,235.5 283.5,235.167 283.5,234.5C 283.517,232.972 284.184,232.472 285.5,233C 286.833,234 288.167,235 289.5,236C 288.552,236.483 287.552,236.649 286.5,236.5 Z"/></g>
</svg>
