<svg xmlns="http://www.w3.org/2000/svg" width="175.37" height="53.49" viewBox="0 0 175.37 53.49"><path d="M4 42.37V43a.1.1 0 0 1-.1.1H.1a.09.09 0 0 1-.07 0A.08.08 0 0 1 0 43v-5.7a.1.1 0 0 1 .1-.1h.78a.11.11 0 0 1 .1.1v4.93h2.87a.1.1 0 0 1 .15.14Zm5.64.63s0 .07-.09.07h-.84A.09.09 0 0 1 8.6 43l-.28-.9H6.05l-.28.9a.09.09 0 0 1-.1.08h-.9a.05.05 0 0 1-.07 0 .06.06 0 0 1 0-.08l1.83-5.71a.12.12 0 0 1 .11-.09h1.05a.11.11 0 0 1 .1.09ZM8 41.27l-.86-2.83-.87 2.83H8s.06.04 0 0Zm6.64.21a1.45 1.45 0 0 1-.54 1.22 2.18 2.18 0 0 1-1.4.41h-2.09a.1.1 0 0 1-.1-.1v-5.7a.1.1 0 0 1 .1-.1h2.06a2.17 2.17 0 0 1 1.42.4 1.4 1.4 0 0 1 .5 1.2 1.24 1.24 0 0 1-.77 1.19 1.45 1.45 0 0 1 .86 1.48Zm-3.19-3.39v1.56h1.16a1 1 0 0 0 .7-.21.73.73 0 0 0 .26-.6.78.78 0 0 0-.26-.61 1.05 1.05 0 0 0-.7-.23h-1.07Zm1.95 2.65a1 1 0 0 0-.71-.24h-1.15v1.67h1.22a1 1 0 0 0 .69-.24.91.91 0 0 0-.01-1.19Zm6.2 1.47a1.82 1.82 0 0 1-.75.73 2.61 2.61 0 0 1-2.25 0 1.79 1.79 0 0 1-.76-.73 2.29 2.29 0 0 1-.27-1.09V39.2a2.25 2.25 0 0 1 .27-1.08 1.91 1.91 0 0 1 .76-.73 2.61 2.61 0 0 1 2.25 0 2 2 0 0 1 .75.73 2 2 0 0 1 .27 1.08v1.92a2.08 2.08 0 0 1-.23 1.09Zm-.71-3a1.19 1.19 0 0 0-.32-.88 1.11 1.11 0 0 0-.85-.33 1.13 1.13 0 0 0-.84.33 1.2 1.2 0 0 0-.33.88v2a1.2 1.2 0 0 0 .33.87 1.06 1.06 0 0 0 .84.33 1.08 1.08 0 0 0 .85-.33 1.15 1.15 0 0 0 .32-.87Zm6.2 3.93h-.81a.13.13 0 0 1-.08-.14l-1.11-2.43a.07.07 0 0 0-.05 0H22V43a.09.09 0 0 1-.1.1h-.77A.09.09 0 0 1 21 43v-5.7a.09.09 0 0 1 .1-.09h2.32a1.82 1.82 0 0 1 .91.21A1.58 1.58 0 0 1 25 38a1.85 1.85 0 0 1 .22.9 1.67 1.67 0 0 1-.3 1 1.54 1.54 0 0 1-.84.57L25.21 43s-.01.12-.08.12ZM24 39.57a.86.86 0 0 0 .24-.63.91.91 0 0 0-.24-.65 1 1 0 0 0-.66-.24H22v1.68h1.28a.86.86 0 0 0 .72-.16Zm2 3.51a.06.06 0 0 1 0-.08l1.83-5.71a.12.12 0 0 1 .17-.09h1a.12.12 0 0 1 .11.09L31 43s0 .07-.09.07H30a.1.1 0 0 1-.11-.08l-.28-.9h-2.23l-.28.9a.1.1 0 0 1-.11.08h-.89s-.05.04-.1.01Zm1.57-1.81h1.71s.05 0 0 0l-.87-2.83Zm7.47-4.06H31a.1.1 0 0 0-.1.09v.7a.1.1 0 0 0 .1.09h1.51a.05.05 0 0 1 0 .05V43a.09.09 0 0 0 .1.1h.78a.1.1 0 0 0 .1-.1v-4.9h1.55a.09.09 0 0 0 .1-.09v-.71a.11.11 0 0 0 0-.07Zm1.59 5.73a1.84 1.84 0 0 1-.76-.73 2.17 2.17 0 0 1-.26-1.09V39.2a2 2 0 0 1 .27-1.08 1.88 1.88 0 0 1 .75-.73 2.61 2.61 0 0 1 2.25 0 1.82 1.82 0 0 1 .75.73 2.15 2.15 0 0 1 .28 1.08v1.92a2.19 2.19 0 0 1-.28 1.09 1.76 1.76 0 0 1-.75.73 2.61 2.61 0 0 1-2.25 0Zm.28-.92a1.07 1.07 0 0 0 .84.33 1.11 1.11 0 0 0 .86-.33 1.23 1.23 0 0 0 .32-.87v-2a1.23 1.23 0 0 0-.32-.88 1.26 1.26 0 0 0-1.7 0 1.19 1.19 0 0 0-.32.88v2a1.15 1.15 0 0 0 .35.85ZM42 43v-5.7a.1.1 0 0 0-.1-.1h-.77a.1.1 0 0 0-.1.1V43a.07.07 0 0 0 0 .07.11.11 0 0 0 .07 0h.78A.09.09 0 0 0 42 43Zm5.36.11h-.8a.13.13 0 0 1-.12-.08l-1.12-2.43h-1V43a.1.1 0 0 1-.1.1h-.78a.1.1 0 0 1-.1-.1v-5.7a.1.1 0 0 1 .1-.09h2.32a1.79 1.79 0 0 1 .91.21 1.52 1.52 0 0 1 .62.61 1.85 1.85 0 0 1 .22.9 1.67 1.67 0 0 1-.3 1 1.55 1.55 0 0 1-.83.57l1.06 2.5s-.01.12-.08.12Zm-1.18-3.55a.83.83 0 0 0 .25-.63.87.87 0 0 0-.25-.65.92.92 0 0 0-.65-.24h-1.27v1.68h1.28a.84.84 0 0 0 .64-.15ZM52.41 43v-.64a.1.1 0 0 0-.09-.1h-2.9V40.6h1.93a.11.11 0 0 0 .1-.1v-.65a.11.11 0 0 0-.1-.1h-1.93v-1.66h2.88a.11.11 0 0 0 .07 0 .07.07 0 0 0 0-.07v-.72a.1.1 0 0 0-.09-.1h-3.8a.1.1 0 0 0-.1.1V43a.09.09 0 0 0 .1.1h3.8a.09.09 0 0 0 .13-.1Zm2.79-5.8a.11.11 0 0 0-.1.1V43a.08.08 0 0 0 0 .07.11.11 0 0 0 .07 0H56a.1.1 0 0 0 .1-.1V37.3a.11.11 0 0 0-.1-.1Zm5.68 5.91h.75a.09.09 0 0 0 .1-.1V37.3a.1.1 0 0 0-.1-.1h-.78a.1.1 0 0 0-.1.1v3.94l-2.42-4a.14.14 0 0 0-.12-.07h-.75a.1.1 0 0 0-.1.1V43a.09.09 0 0 0 .1.1h.78a.1.1 0 0 0 .1-.1v-3.93l2.43 4a.11.11 0 0 0 .11.04Zm4.38-.1V38.1h1.55A.09.09 0 0 0 67 38v-.7a.11.11 0 0 0 0-.07.09.09 0 0 0-.07 0h-4.19a.1.1 0 0 0-.1.1V38a.09.09 0 0 0 .1.1h1.51a.05.05 0 0 1 0 .05V43a.1.1 0 0 0 .1.1h.78a.1.1 0 0 0 .13-.1Zm2.7.1h3.8a.09.09 0 0 0 .09-.1v-.64a.1.1 0 0 0-.09-.1h-2.9V40.6h1.93a.11.11 0 0 0 .1-.1v-.65a.11.11 0 0 0-.1-.1h-2v-1.66h2.88a.11.11 0 0 0 .07 0 .07.07 0 0 0 0-.07v-.72a.1.1 0 0 0-.09-.1H68a.1.1 0 0 0-.1.1V43a.09.09 0 0 0 .1.11Zm9 0h-.82a.11.11 0 0 1-.11-.08l-1.12-2.43h-1V43a.09.09 0 0 1-.1.1H73a.09.09 0 0 1-.1-.1v-5.7a.09.09 0 0 1 .1-.09h2.32a1.79 1.79 0 0 1 .91.21 1.52 1.52 0 0 1 .62.61 1.85 1.85 0 0 1 .22.9 1.67 1.67 0 0 1-.3 1 1.55 1.55 0 0 1-.83.57l1.12 2.5c.02.1-.01.12-.06.12Zm-1.16-3.54a.83.83 0 0 0 .25-.63.87.87 0 0 0-.25-.65.93.93 0 0 0-.66-.24h-1.26v1.68h1.27a.86.86 0 0 0 .65-.16Zm5.45 3.33a2.78 2.78 0 0 1-1.06.21h-2.06a.09.09 0 0 1-.07 0A.08.08 0 0 1 78 43v-5.7a.1.1 0 0 1 .1-.1h2.06a2.78 2.78 0 0 1 1.06.21 1.59 1.59 0 0 1 1 1.52v2.45a1.59 1.59 0 0 1-1 1.52Zm0-3.81a1 1 0 0 0-.27-.76 1 1 0 0 0-.73-.28h-1.2v4.14h1.19A1 1 0 0 0 81 42a1.11 1.11 0 0 0 .27-.76Zm2.13-1.89a.1.1 0 0 0-.1.1V43a.08.08 0 0 0 0 .07s0 0 .07 0h.78a.1.1 0 0 0 .1-.09v-5.67a.11.11 0 0 0 0-.08.11.11 0 0 0-.07 0Zm6.11 4.32a1.33 1.33 0 0 0-.26-.84 1.72 1.72 0 0 0-.62-.51 8.86 8.86 0 0 0-1-.42 7.36 7.36 0 0 1-.84-.33 1.28 1.28 0 0 1-.4-.29.6.6 0 0 1-.14-.42.66.66 0 0 1 .26-.55 1.2 1.2 0 0 1 .72-.19 1.34 1.34 0 0 1 .9.28.79.79 0 0 1 .32.67V39a.15.15 0 0 0 0 .07.11.11 0 0 0 .08 0h.76a.1.1 0 0 0 .1-.1v-.14a1.62 1.62 0 0 0-.27-.91 1.81 1.81 0 0 0-.76-.61 2.67 2.67 0 0 0-1.12-.22 2.21 2.21 0 0 0-1.44.43 1.41 1.41 0 0 0-.54 1.17 1.34 1.34 0 0 0 .25.84 1.65 1.65 0 0 0 .62.52 8.35 8.35 0 0 0 1 .42 8.3 8.3 0 0 1 .8.34 1.31 1.31 0 0 1 .41.3.53.53 0 0 1 .14.4.68.68 0 0 1-.26.56 1.19 1.19 0 0 1-.78.22 1.51 1.51 0 0 1-.94-.26.75.75 0 0 1-.35-.64v-.16a.09.09 0 0 0-.1-.1h-.73a.09.09 0 0 0-.1.1v.21a1.47 1.47 0 0 0 .27.9 1.74 1.74 0 0 0 .75.59 3 3 0 0 0 1.15.2 2.41 2.41 0 0 0 1.53-.45 1.43 1.43 0 0 0 .56-1.16Zm5.08-.27a.09.09 0 0 0-.07 0h-.78c-.06 0-.1 0-.1.09a1 1 0 0 1-.3.8 1.28 1.28 0 0 1-1.65 0 1 1 0 0 1-.32-.79v-2.27a1 1 0 0 1 .32-.8 1.17 1.17 0 0 1 .82-.3 1.2 1.2 0 0 1 .83.3 1.06 1.06 0 0 1 .3.8.09.09 0 0 0 .1.1h.78a.09.09 0 0 0 .1-.1 1.87 1.87 0 0 0-.26-1 1.74 1.74 0 0 0-.74-.66 2.66 2.66 0 0 0-2.23 0 1.76 1.76 0 0 0-.74.69 2 2 0 0 0-.26 1v2.08a2 2 0 0 0 .26 1 1.78 1.78 0 0 0 .74.7 2.43 2.43 0 0 0 1.12.24 2.39 2.39 0 0 0 1.11-.24 1.65 1.65 0 0 0 .74-.67 1.86 1.86 0 0 0 .2-.97Zm1.15 1.86h.77a.09.09 0 0 0 .1-.1V37.3a.1.1 0 0 0-.1-.1h-.77a.1.1 0 0 0-.1.1V43a.08.08 0 0 0 0 .07.09.09 0 0 0 .07.04Zm4.43-2.41h-1.38V43a.1.1 0 0 1-.1.1h-.78a.1.1 0 0 1-.1-.1v-5.71a.11.11 0 0 1 .1-.1h2.32a2 2 0 0 1 .94.22 1.7 1.7 0 0 1 .63.62 1.9 1.9 0 0 1 .22.97 1.71 1.71 0 0 1-.23.91 1.51 1.51 0 0 1-.64.61 2 2 0 0 1-1.01.18Zm-.09-.8a.9.9 0 0 0 .69-.25.87.87 0 0 0 .25-.65.91.91 0 0 0-.26-.68.93.93 0 0 0-.74-.32h-1.23v1.78H100Zm3.67-2.7h-.78a.11.11 0 0 0-.1.1V43a.08.08 0 0 0 0 .07.09.09 0 0 0 .07 0h3.75a.09.09 0 0 0 .1-.1v-.64a.09.09 0 0 0-.1-.1h-2.84V37.3a.11.11 0 0 0-.13-.1Zm4.89 5.8v-5.7a.1.1 0 0 0-.1-.1h-.77a.1.1 0 0 0-.1.1V43a.1.1 0 0 0 .1.1h.77a.09.09 0 0 0 .1-.1Zm2.22 0v-3.93l2.43 4a.12.12 0 0 0 .12.07h.75a.09.09 0 0 0 .1-.1V37.3a.1.1 0 0 0-.1-.1h-.77a.08.08 0 0 0-.07 0 .11.11 0 0 0 0 .07v3.94l-2.42-4a.14.14 0 0 0-.12-.07H110a.11.11 0 0 0-.1.1V43a.1.1 0 0 0 .1.1h.78a.1.1 0 0 0 .06-.1Zm5.24.1h-.84a.07.07 0 0 1-.08 0 .08.08 0 0 1 0-.08l1.84-5.73a.11.11 0 0 1 .11-.09h1.05a.12.12 0 0 1 .11.09L120.1 43s0 .07-.09.07h-.85a.1.1 0 0 1-.11-.08l-.28-.9h-2.23l-.28.9a.1.1 0 0 1-.18.12Zm.65-1.84h1.71l-.87-2.83Zm4.35 1.84h.78a.1.1 0 0 0 .1-.1v-5.7a.11.11 0 0 0-.1-.1h-.78a.1.1 0 0 0-.1.1V43a.08.08 0 0 0 0 .07.09.09 0 0 0 .1.04Zm6.32-.1c0 .05 0 .07-.09.07h-.81a.13.13 0 0 1-.13-.08l-1.11-2.43h-1V43a.1.1 0 0 1-.1.1h-.78a.09.09 0 0 1-.1-.1v-5.7a.09.09 0 0 1 .1-.09h2.32a1.86 1.86 0 0 1 .92.21 1.49 1.49 0 0 1 .61.61 1.74 1.74 0 0 1 .22.9 1.61 1.61 0 0 1-.3 1 1.55 1.55 0 0 1-.83.57Zm-1.26-3.43a.83.83 0 0 0 .25-.63.91.91 0 0 0-.25-.65 1 1 0 0 0-.66-.24h-1.26v1.68h1.28a.86.86 0 0 0 .64-.16Zm3.21-1.49h2.88a.09.09 0 0 0 .07 0 .11.11 0 0 0 0-.08v-.7a.11.11 0 0 0-.1-.1h-3.8a.1.1 0 0 0-.1.1V43a.1.1 0 0 0 .1.1h3.8a.09.09 0 0 0 .1-.1v-.64a.1.1 0 0 0-.1-.1h-2.89V40.6h1.93a.1.1 0 0 0 .1-.1v-.65a.1.1 0 0 0-.1-.1h-1.94v-1.66ZM23.54 47.51a1.68 1.68 0 0 1 .25.92v2.45a1.58 1.58 0 0 1-1 1.52 2.7 2.7 0 0 1-1 .21h-2.07a.11.11 0 0 1-.07 0 .08.08 0 0 1 0-.07V46.8a.1.1 0 0 1 .1-.1h2.06a2.7 2.7 0 0 1 1 .21 1.66 1.66 0 0 1 .73.6Zm-.73 1.08a1 1 0 0 0-.27-.76.93.93 0 0 0-.72-.28h-1.18v4.14h1.19a1 1 0 0 0 .72-.28 1.11 1.11 0 0 0 .27-.76Zm5.93-1.89h-3.8a.09.09 0 0 0-.1.1v5.71a.1.1 0 0 0 .1.1h3.8a.11.11 0 0 0 .1-.1v-.64a.1.1 0 0 0-.1-.1h-2.89v-1.68h1.93a.09.09 0 0 0 .1-.1v-.64a.09.09 0 0 0-.1-.1h-1.93v-1.66h2.88a.11.11 0 0 0 .07 0 .11.11 0 0 0 0-.08v-.71a.1.1 0 0 0-.06-.1Zm4.22 3a8.15 8.15 0 0 0-1-.41c-.37-.14-.65-.25-.83-.34a1.22 1.22 0 0 1-.41-.29.61.61 0 0 1-.13-.41.64.64 0 0 1 .25-.55 1.26 1.26 0 0 1 .73-.2 1.34 1.34 0 0 1 .9.28.86.86 0 0 1 .32.67v.09a.1.1 0 0 0 .1.1h.76a.09.09 0 0 0 .1-.1v-.14a1.57 1.57 0 0 0-.27-.91 1.78 1.78 0 0 0-.75-.61 2.73 2.73 0 0 0-1.12-.22 2.22 2.22 0 0 0-1.45.43 1.54 1.54 0 0 0-.29 2 1.82 1.82 0 0 0 .62.52 9.16 9.16 0 0 0 1 .42 6.54 6.54 0 0 1 .8.34 1.12 1.12 0 0 1 .41.3.59.59 0 0 1 .15.4.71.71 0 0 1-.26.56 1.22 1.22 0 0 1-.78.22 1.52 1.52 0 0 1-.95-.26.77.77 0 0 1-.34-.64v-.16a.1.1 0 0 0-.1-.1h-.76a.1.1 0 0 0-.1.1V51a1.61 1.61 0 0 0 .27.9 1.71 1.71 0 0 0 .76.59 2.78 2.78 0 0 0 1.14.21 2.38 2.38 0 0 0 1.53-.45 1.5 1.5 0 0 0 .58-1.25 1.3 1.3 0 0 0-.26-.83 1.94 1.94 0 0 0-.58-.5Zm6.68 0a8.15 8.15 0 0 0-1-.41c-.37-.14-.65-.25-.83-.34a1.22 1.22 0 0 1-.41-.29.61.61 0 0 1-.13-.41.64.64 0 0 1 .25-.55 1.26 1.26 0 0 1 .73-.2 1.34 1.34 0 0 1 .9.28.86.86 0 0 1 .32.67v.09a.1.1 0 0 0 .1.1h.76a.09.09 0 0 0 .1-.1v-.14a1.57 1.57 0 0 0-.27-.91 1.78 1.78 0 0 0-.75-.61 2.73 2.73 0 0 0-1.12-.22 2.22 2.22 0 0 0-1.45.43 1.54 1.54 0 0 0-.29 2 1.82 1.82 0 0 0 .62.52 9.16 9.16 0 0 0 1 .42 6.54 6.54 0 0 1 .8.34 1.12 1.12 0 0 1 .41.3.59.59 0 0 1 .15.4.69.69 0 0 1-.27.56 1.18 1.18 0 0 1-.77.22 1.52 1.52 0 0 1-1-.26.77.77 0 0 1-.34-.64v-.16a.1.1 0 0 0-.1-.1h-.76a.1.1 0 0 0-.1.1V51a1.61 1.61 0 0 0 .27.9 1.71 1.71 0 0 0 .76.59 2.78 2.78 0 0 0 1.14.21 2.38 2.38 0 0 0 1.64-.47 1.5 1.5 0 0 0 .52-1.23 1.36 1.36 0 0 0-.26-.83 1.94 1.94 0 0 0-.62-.5Zm5.85 1h-.77c-.07 0-.1 0-.1.1a1.11 1.11 0 0 1-.31.8 1.28 1.28 0 0 1-1.65 0 1 1 0 0 1-.31-.8v-2.21a1 1 0 0 1 .31-.8 1.28 1.28 0 0 1 1.65 0 1.08 1.08 0 0 1 .31.8c0 .06 0 .09.1.09h.77a.09.09 0 0 0 .1-.1 1.85 1.85 0 0 0-.26-1 1.77 1.77 0 0 0-.74-.67 2.51 2.51 0 0 0-1.11-.23 2.37 2.37 0 0 0-1.11.24 1.83 1.83 0 0 0-.74.69 2.12 2.12 0 0 0-.27 1v2.08a2.07 2.07 0 0 0 .27 1 1.72 1.72 0 0 0 .74.7 2.42 2.42 0 0 0 1.12.25 2.59 2.59 0 0 0 1.1-.24 1.72 1.72 0 0 0 .74-.67 2 2 0 0 0 .27-1s0 0 0-.06Zm2-4h-.78a.11.11 0 0 0-.1.1v5.71a.08.08 0 0 0 0 .07.09.09 0 0 0 .07 0h.78a.1.1 0 0 0 .1-.1V46.8a.11.11 0 0 0-.04-.1Zm5.23 0H49a.1.1 0 0 0-.1.1v5.71a.11.11 0 0 0 .1.1h3.8a.1.1 0 0 0 .1-.1v-.64a.09.09 0 0 0-.1-.1h-2.94a.05.05 0 0 1 0-.05v-1.63h1.94a.1.1 0 0 0 .1-.1v-.64a.1.1 0 0 0-.1-.1h-2v-1.66h2.89a.11.11 0 0 0 .07 0 .08.08 0 0 0 0-.08v-.71a.09.09 0 0 0-.01-.1Zm5.42 0h-.78a.1.1 0 0 0-.1.1v3.94l-2.42-4a.13.13 0 0 0-.12-.07H54a.1.1 0 0 0-.1.1v5.71a.09.09 0 0 0 .1.1h.77a.09.09 0 0 0 .1-.1v-3.91l2.43 4a.11.11 0 0 0 .12.07h.75a.1.1 0 0 0 .1-.1V46.8a.11.11 0 0 0-.1-.1Zm5.32 4h-.78a.09.09 0 0 0-.1.1 1.06 1.06 0 0 1-.3.8 1.3 1.3 0 0 1-1.66 0 1.08 1.08 0 0 1-.31-.8v-2.21a1.08 1.08 0 0 1 .31-.8 1.13 1.13 0 0 1 .83-.3 1.11 1.11 0 0 1 .83.3 1.07 1.07 0 0 1 .3.8c0 .06 0 .09.1.09h.78a.09.09 0 0 0 .1-.1 1.77 1.77 0 0 0-1-1.67 2.51 2.51 0 0 0-1.11-.23 2.41 2.41 0 0 0-1.12.24 1.89 1.89 0 0 0-.74.69 2 2 0 0 0-.26 1v2.08a2 2 0 0 0 .26 1 1.78 1.78 0 0 0 .74.7 2.42 2.42 0 0 0 1.12.25 2.67 2.67 0 0 0 1.11-.24 1.77 1.77 0 0 0 .74-.67 1.88 1.88 0 0 0 .26-1 .09.09 0 0 0 0-.06Zm5.05-4h-3.8a.09.09 0 0 0-.1.1v5.71a.1.1 0 0 0 .1.1h3.8a.11.11 0 0 0 .1-.1v-.64a.1.1 0 0 0-.1-.1h-2.86v-1.68h1.93a.09.09 0 0 0 .1-.1v-.64a.09.09 0 0 0-.1-.1h-1.93v-1.66h2.88a.11.11 0 0 0 .07 0 .11.11 0 0 0 0-.08v-.71a.1.1 0 0 0-.06-.1Zm4.22 3a8.15 8.15 0 0 0-1-.41c-.37-.14-.65-.25-.83-.34a1.22 1.22 0 0 1-.41-.29.61.61 0 0 1-.13-.41.64.64 0 0 1 .25-.55 1.26 1.26 0 0 1 .73-.2 1.34 1.34 0 0 1 .9.28.86.86 0 0 1 .32.67v.09a.1.1 0 0 0 .1.1h.76a.09.09 0 0 0 .1-.1v-.14a1.57 1.57 0 0 0-.27-.91 1.78 1.78 0 0 0-.75-.61 2.73 2.73 0 0 0-1.12-.22 2.22 2.22 0 0 0-1.45.43 1.54 1.54 0 0 0-.29 2 1.82 1.82 0 0 0 .62.52 9.16 9.16 0 0 0 1 .42 6.54 6.54 0 0 1 .8.34 1.12 1.12 0 0 1 .41.3.59.59 0 0 1 .15.4.69.69 0 0 1-.27.56 1.18 1.18 0 0 1-.77.22 1.52 1.52 0 0 1-1-.26.77.77 0 0 1-.34-.64v-.16a.1.1 0 0 0-.1-.1h-.76a.1.1 0 0 0-.1.1V51a1.61 1.61 0 0 0 .27.9 1.71 1.71 0 0 0 .76.59 2.78 2.78 0 0 0 1.14.21 2.38 2.38 0 0 0 1.53-.45 1.5 1.5 0 0 0 .66-1.25 1.36 1.36 0 0 0-.26-.83 1.94 1.94 0 0 0-.62-.5Zm7.48-2.16a1.77 1.77 0 0 1 .25.92v2.45a1.77 1.77 0 0 1-.25.92 1.66 1.66 0 0 1-.71.6 2.7 2.7 0 0 1-1 .21h-2.08a.11.11 0 0 1-.08 0 .12.12 0 0 1 0-.07V46.8a.1.1 0 0 1 .1-.1h2.06a2.7 2.7 0 0 1 1 .21 1.66 1.66 0 0 1 .74.6Zm-.73 1.08a1.11 1.11 0 0 0-.27-.76 1 1 0 0 0-.73-.28h-1.14v4.14h1.2a.93.93 0 0 0 .71-.28 1.12 1.12 0 0 0 .28-.76Zm6.11-1.89h-.78a.11.11 0 0 0-.1.1v3.91a1.1 1.1 0 0 1-.31.81 1.25 1.25 0 0 1-1.66 0 1.1 1.1 0 0 1-.31-.81V46.8a.1.1 0 0 0-.1-.1h-.78a.11.11 0 0 0-.1.1v3.89a2.13 2.13 0 0 0 .27 1.05 1.87 1.87 0 0 0 .75.7 2.69 2.69 0 0 0 2.22 0 1.87 1.87 0 0 0 .75-.7 2.12 2.12 0 0 0 .26-1.05V46.8a.11.11 0 0 0-.08-.1Zm7.29 0h-.78a.1.1 0 0 0-.1.1v3.94l-2.42-4a.12.12 0 0 0-.12-.07h-.76a.1.1 0 0 0-.1.1v5.71a.09.09 0 0 0 .1.1h.77a.09.09 0 0 0 .1-.1v-3.94l2.43 4a.11.11 0 0 0 .12.07h.75a.09.09 0 0 0 .1-.1V46.8a.1.1 0 0 0-.06-.1Zm5.42 0h-.78a.11.11 0 0 0-.1.1v3.91a1.1 1.1 0 0 1-.31.81 1.25 1.25 0 0 1-1.66 0 1.1 1.1 0 0 1-.31-.81V46.8a.1.1 0 0 0-.1-.1h-.78a.11.11 0 0 0-.1.1v3.89a2.13 2.13 0 0 0 .27 1.05 1.75 1.75 0 0 0 .75.7 2.69 2.69 0 0 0 2.22 0 1.87 1.87 0 0 0 .75-.7 2.12 2.12 0 0 0 .26-1.05V46.8a.11.11 0 0 0-.08-.1Zm6 0h-.78a.12.12 0 0 0-.11.07l-1.38 2.09-1.38-2.09a.11.11 0 0 0-.11-.06h-.78a.09.09 0 0 0-.1.1v5.71a.09.09 0 0 0 .1.09h.78a.1.1 0 0 0 .1-.09v-4l1.06 1.61a.14.14 0 0 0 .12.07h.39a.15.15 0 0 0 .12-.07l1-1.62v4a.1.1 0 0 0 .1.09h.85a.08.08 0 0 0 0-.07V46.8a.11.11 0 0 0 0-.07.09.09 0 0 0 .04-.03Zm2.84-.57Zm2.39.57h-3.8a.1.1 0 0 0-.1.1v5.71a.11.11 0 0 0 .1.1h3.8a.1.1 0 0 0 .1-.1v-.64a.09.09 0 0 0-.1-.1h-2.89a.05.05 0 0 1 0-.05v-1.66h1.94a.1.1 0 0 0 .1-.1v-.64a.1.1 0 0 0-.1-.1h-2v-1.66h2.88a.11.11 0 0 0 .08 0 .08.08 0 0 0 0-.08v-.71a.09.09 0 0 0 .01-.1Zm-1.92-1.53-.46.87a.1.1 0 0 0 0 .09s0 0 .07 0h.56a.14.14 0 0 0 .12-.06l.58-.87a.06.06 0 0 0 0-.08.07.07 0 0 0-.08 0h-.66a.12.12 0 0 0-.11.02Zm7.23 7.33s0 .07-.09.07H114a.13.13 0 0 1-.12-.08l-1.11-2.43h-1.05v2.4a.09.09 0 0 1-.1.1h-.77a.09.09 0 0 1-.1-.1V46.8a.11.11 0 0 1 0-.07.09.09 0 0 1 .07 0h2.32a1.91 1.91 0 0 1 .91.22 1.52 1.52 0 0 1 .62.61 1.85 1.85 0 0 1 .22.9 1.67 1.67 0 0 1-.3 1 1.55 1.55 0 0 1-.83.57Zm-1.26-3.43a.85.85 0 0 0 .25-.64.89.89 0 0 0-.25-.64.9.9 0 0 0-.66-.24h-1.31v1.68h1.28a.9.9 0 0 0 .71-.19Zm3.11-2.37h-.78a.09.09 0 0 0-.07 0 .11.11 0 0 0 0 .07v5.71a.08.08 0 0 0 0 .07.09.09 0 0 0 .07 0h.78a.1.1 0 0 0 .1-.1V46.8a.11.11 0 0 0-.08-.1Zm5 .91a2.18 2.18 0 0 1 .27 1.07v2a2 2 0 0 1-.42 1.27 1.9 1.9 0 0 1-1.14.66v.71a.1.1 0 0 1-.1.1h-.78a.1.1 0 0 1-.1-.1v-.71a1.87 1.87 0 0 1-1.55-1.93v-2a2.07 2.07 0 0 1 .26-1.07 1.75 1.75 0 0 1 .73-.72 2.24 2.24 0 0 1 1.08-.26 2.3 2.3 0 0 1 1.09.26 1.75 1.75 0 0 1 .69.69Zm-.71 1a1.18 1.18 0 0 0-.3-.83 1.15 1.15 0 0 0-1.6 0 1.1 1.1 0 0 0-.3.83v2.06a1.11 1.11 0 0 0 .3.83 1.15 1.15 0 0 0 1.6 0 1.2 1.2 0 0 0 .3-.83Zm6.07-1.93h-.77a.1.1 0 0 0-.1.1v3.91a1.11 1.11 0 0 1-.32.81 1.24 1.24 0 0 1-1.65 0 1.06 1.06 0 0 1-.31-.81V46.8a.11.11 0 0 0-.1-.1h-.78a.1.1 0 0 0-.1.1v3.89a2 2 0 0 0 .26 1.05 1.87 1.87 0 0 0 .75.7 2.69 2.69 0 0 0 2.22 0 1.78 1.78 0 0 0 .74-.7 2 2 0 0 0 .26-1.05V46.8a.1.1 0 0 0-.07-.1Zm5.19 0h-3.8a.11.11 0 0 0-.07 0 .09.09 0 0 0 0 .07v5.71a.11.11 0 0 0 .1.1h3.8a.1.1 0 0 0 .1-.1v-.64a.09.09 0 0 0-.1-.1h-2.89a.05.05 0 0 1 0-.05v-1.61h1.93a.09.09 0 0 0 .1-.1v-.64a.09.09 0 0 0-.1-.1h-1.94v-1.66h2.88a.09.09 0 0 0 .07 0 .08.08 0 0 0 0-.08v-.71a.1.1 0 0 0-.1-.1ZM37.13 6.83h-8.44v25.33h19v-6.33H37.13Zm67.52 14.34 6.28 4.61v6.38h7.39v-26h-7.39v10.07L97.26 6.15v26h7.39Zm-21.76 4.76a3.71 3.71 0 0 1-1.1.16 5.34 5.34 0 0 1-2.12-.45 6.54 6.54 0 0 1-2-1.33 9.8 9.8 0 0 1-1.5-2l-5.1 3.78a10.22 10.22 0 0 0 2.36 3.14 12 12 0 0 0 3.85 2.33 13.41 13.41 0 0 0 4.82.84 12.67 12.67 0 0 0 3.62-.51 10.66 10.66 0 0 0 3.17-1.52 7.24 7.24 0 0 0 3-6.08 7.69 7.69 0 0 0-.41-2.57 6.66 6.66 0 0 0-1.23-2.09 8.5 8.5 0 0 0-2-1.64 14 14 0 0 0-2.45-1.19l-1.44-.5-.57-.19c-.62-.21-1.17-.42-1.64-.62a3.87 3.87 0 0 1-1.15-.71 1.29 1.29 0 0 1-.42-.95.94.94 0 0 1 .23-.66 1.46 1.46 0 0 1 .64-.36 2.94 2.94 0 0 1 .93-.12 3.88 3.88 0 0 1 1.35.24 4.91 4.91 0 0 1 2.49 2l5.18-3.85a11 11 0 0 0-1.37-1.61 10.11 10.11 0 0 0-3.21-2.07 11.89 11.89 0 0 0-4.68-.83 12.44 12.44 0 0 0-4.63.83 7.81 7.81 0 0 0-3.38 2.45 6.25 6.25 0 0 0-1.28 4 7 7 0 0 0 .7 3.15 7.87 7.87 0 0 0 1.69 2.28 11.08 11.08 0 0 0 2.14 1.52l.54.26c.53.26 1 .5 1.45.67 1.31.51 2.29.91 2.94 1.21a4.62 4.62 0 0 1 1.29.79 1.12 1.12 0 0 1 .33.83 1.33 1.33 0 0 1-.28.86 1.46 1.46 0 0 1-.76.51Zm-24.74 6.23h7.39V6.82L51.6 17v8.8l6.55-4.73ZM58 2.56v5.55l7.57-5.55Zm117.4 18-3 4-10-7.39v7.39l-.78 1.06-2.19 3-7.05-5.2v19.7h-4.81v-16l-5.2-3.84v29.33h-4.82V19.72l-5.15-3.8v16.24h-4.81v-26l10 7.35V0l10 7.39V0l10 7.39Zm-27.83.37v-7.31l-5.2-3.84V17Zm10 .12v-7.43l-5.21-3.84v7.39Z" fill="#fff"/></svg>