<?xml version="1.0" encoding="utf-8"?>
<!-- Generator: Adobe Illustrator 21.1.0, SVG Export Plug-In . SVG Version: 6.00 Build 0)  -->
<svg version="1.1" id="Layer_1" xmlns="http://www.w3.org/2000/svg" xmlns:xlink="http://www.w3.org/1999/xlink" x="0px" y="0px"
	 viewBox="0 0 149.7 52.6" style="enable-background:new 0 0 149.7 52.6;" xml:space="preserve">
<style type="text/css">
	.st0{fill:#FFFFFF;}
</style>
<title>logo</title>
<desc>Created with Sketch.</desc>
<g>
	<g>
		<path class="st0" d="M145.5,0c-2.3,0-4.2,1.9-4.2,4.2s1.9,4.2,4.2,4.2s4.2-1.9,4.2-4.2S147.8,0,145.5,0"/>
	</g>
	<g>
		<path class="st0" d="M136.4,14.8c1.4,0,2.6-1.2,2.6-2.6c0-1.4-1.2-2.6-2.6-2.6s-2.6,1.2-2.6,2.6C133.8,13.6,134.9,14.8,136.4,14.8
			"/>
	</g>
</g>
<rect x="38.1" y="19.2" class="st0" width="2.8" height="15.8"/>
<g>
	<g>
		<path class="st0" d="M65.3,26.1c0.4-2.8,2.3-4.7,4.7-4.7c3,0,4.3,2.4,4.6,4.7H65.3z M70,18.9c-4.3,0-7.6,3.5-7.6,8.3
			s3.4,8.3,7.9,8.3c2.7,0,4.7-0.9,6.5-3l0.2-0.2l-1.8-1.6L75,30.8c-1.3,1.4-2.8,2.1-4.6,2.1c-2.7,0-4.7-1.8-5.1-4.7h12.1l0-0.2
			c0-0.3,0-0.5,0-0.7C77.4,22.3,74.4,18.9,70,18.9"/>
	</g>
	<g>
		<path class="st0" d="M11.1,35.1h2.8V19.2h-2.8v9c0,2.7-1.8,4.5-4.3,4.5c-2.5,0-4-1.6-4-4.3v-9.2H0V29c0,3.9,2.4,6.4,6.1,6.4
			c2.1,0,3.7-0.8,5-2.4L11.1,35.1L11.1,35.1z"/>
	</g>
	<g>
		<path class="st0" d="M30.2,25.9v9.2H33v-9.8c0-3.9-2.4-6.4-6.1-6.4c-2.1,0-3.8,0.8-5,2.4v-2.1h-2.8v15.8h2.8v-9
			c0-2.7,1.8-4.5,4.3-4.5C28.7,21.5,30.2,23.1,30.2,25.9"/>
	</g>
</g>
<polygon class="st0" points="53.9,35.2 60.8,19.2 57.7,19.2 52.7,31.5 47.7,19.2 44.6,19.2 51.5,35.2 "/>
<g>
	<g>
		<path class="st0" d="M84.3,28.7c0-4.1,2.3-6.8,5.8-6.8h0.4v-3l-0.3,0c-2.5-0.1-4.6,1.2-6,3.4v-3.2h-2.8v15.8h2.8L84.3,28.7
			L84.3,28.7z"/>
	</g>
	<g>
		<path class="st0" d="M123.3,35.4c1.1,0,2-0.2,2.9-0.7l0.1-0.1v-2.5l-0.4,0.2c-0.8,0.4-1.4,0.5-2.1,0.5c-1.6,0-2.3-0.7-2.3-2.3
			v-8.7h4.9v-2.5h-4.9V14l-2.8,1.5v3.7h-3v2.5h3v9C118.8,33.7,120.4,35.4,123.3,35.4"/>
	</g>
	<g>
		<path class="st0" d="M136.5,21.4c3,0,4.3,2.4,4.6,4.7h-9.3C132.2,23.3,134.1,21.4,136.5,21.4 M136.9,35.4c2.7,0,4.7-0.9,6.5-3
			l0.2-0.2l-1.8-1.6l-0.2,0.2c-1.4,1.4-2.8,2.1-4.6,2.1c-2.7,0-4.7-1.9-5.1-4.7h12.1l0-0.2c0-0.3,0-0.5,0-0.7c0-5-3-8.4-7.4-8.4
			c-4.3,0-7.6,3.5-7.6,8.3C128.9,31.9,132.3,35.4,136.9,35.4"/>
	</g>
	<g>
		<path class="st0" d="M100,25.8L100,25.8c-2-0.6-3.8-1.1-3.8-2.4c0-1.2,1.1-2,2.7-2c1.4,0,2.9,0.5,4.4,1.4l0.2,0.2l1.3-2.2
			l-0.2-0.1C103,19.6,100.9,19,99,19c-3.2,0-5.5,1.9-5.5,4.7v0.1c0,3.1,3,4,5.3,4.6c2.1,0.6,3.6,1.1,3.6,2.5c0,1.3-1.2,2.2-2.9,2.2
			c-1.7,0-3.5-0.7-5.1-1.9l-0.2-0.2l-1.5,2.1l0.2,0.2c1.8,1.4,4.2,2.3,6.5,2.3c3.4,0,5.7-2,5.7-4.9v-0.1
			C105.1,27.4,102,26.4,100,25.8"/>
	</g>
</g>
<rect x="109.6" y="19.2" class="st0" width="2.8" height="15.8"/>
<path class="st0" d="M15.4,47.3l1.6-3.9l1.6,3.9C18.6,47.3,15.4,47.3,15.4,47.3z M15.8,40.2l-5.2,12.2h2.7l1.1-2.7h5.1l1.1,2.7h2.8
	l-5.2-12.2C18.2,40.2,15.8,40.2,15.8,40.2z"/>
<path class="st0" d="M124,47.3l1.6-3.9l1.6,3.9C127.2,47.3,124,47.3,124,47.3z M124.4,40.2l-5.2,12.2h2.7l1.1-2.7h5.1l1.1,2.7h2.8
	l-5.2-12.2C126.9,40.2,124.4,40.2,124.4,40.2z"/>
<polygon class="st0" points="138.1,45.1 135.2,40.3 132.1,40.3 136.7,47.6 136.7,52.4 139.4,52.4 139.4,47.5 144,40.3 141,40.3 "/>
<g>
	<g>
		<path class="st0" d="M6.9,44.5c0,1-0.8,1.8-2.1,1.8H2.7v-3.7h2C6.1,42.7,6.9,43.3,6.9,44.5L6.9,44.5L6.9,44.5z M5,40.3H0.1v12.1
			h2.7v-3.6h2c2.7,0,4.9-1.5,4.9-4.2v0C9.6,42,7.9,40.3,5,40.3"/>
	</g>
	<g>
		<path class="st0" d="M100.1,50.1c-2.1,0-3.5-1.7-3.5-3.8v0c0-2.1,1.5-3.8,3.5-3.8c1.2,0,2.2,0.5,3.1,1.4l1.7-2
			c-1.1-1.1-2.5-1.9-4.8-1.9c-3.7,0-6.3,2.8-6.3,6.2v0c0,3.5,2.6,6.2,6.2,6.2c2.3,0,3.7-0.8,4.9-2.2l-1.7-1.7
			C102.3,49.6,101.4,50.1,100.1,50.1"/>
	</g>
	<g>
		<path class="st0" d="M73,45.1c-2.1-0.5-2.6-0.8-2.6-1.6v0c0-0.6,0.5-1,1.6-1s2.1,0.5,3.1,1.2l1.4-2c-1.2-1-2.7-1.5-4.5-1.5
			c-2.5,0-4.2,1.5-4.2,3.6v0c0,2.4,1.6,3.1,4,3.7c2,0.5,2.4,0.9,2.4,1.5v0c0,0.7-0.7,1.1-1.7,1.1c-1.4,0-2.5-0.6-3.6-1.5l-1.6,1.9
			c1.4,1.3,3.3,1.9,5.1,1.9c2.6,0,4.4-1.3,4.4-3.7v0C76.8,46.6,75.4,45.8,73,45.1"/>
	</g>
</g>
<polygon class="st0" points="111,40.3 108.3,40.3 108.3,52.4 117,52.4 117,50 111,50 "/>
<path class="st0" d="M83.9,47.3l1.6-3.9l1.6,3.9C87.1,47.3,83.9,47.3,83.9,47.3z M84.3,40.2l-5.2,12.2h2.7l1.1-2.7h5.1l1.1,2.7h2.8
	l-5.2-12.2C86.8,40.2,84.3,40.2,84.3,40.2z"/>
<rect x="59.2" y="45.8" class="st0" width="5.3" height="2.5"/>
<g>
	<g>
		<path class="st0" d="M34,44.4c0,1-0.7,1.7-2,1.7h-2.7v-3.5h2.6C33.2,42.7,34,43.3,34,44.4L34,44.4L34,44.4z M36.7,44.3L36.7,44.3
			c0-2.5-1.7-4-4.5-4h-5.5v12.1h2.7v-3.9h2.1l2.6,3.9H37l-3-4.3C35.6,47.5,36.7,46.3,36.7,44.3"/>
	</g>
</g>
<rect x="40.5" y="40.3" class="st0" width="2.7" height="12.1"/>
<g>
	<g>
		<path class="st0" d="M52.3,45.1c-2.1-0.5-2.6-0.8-2.6-1.6v0c0-0.6,0.5-1,1.6-1c1,0,2.1,0.5,3.1,1.2l1.4-2c-1.2-1-2.7-1.5-4.5-1.5
			c-2.5,0-4.2,1.5-4.2,3.6v0c0,2.4,1.6,3.1,4,3.7c2,0.5,2.4,0.9,2.4,1.5v0c0,0.7-0.7,1.1-1.7,1.1c-1.4,0-2.5-0.6-3.6-1.5l-1.6,1.9
			c1.5,1.3,3.3,1.9,5.1,1.9c2.6,0,4.4-1.3,4.4-3.7v0C56.2,46.6,54.8,45.8,52.3,45.1"/>
	</g>
</g>
</svg>
